<?xml version="1.0" encoding="UTF-8" standalone="no"?><svg xmlns="http://www.w3.org/2000/svg" xmlns:xlink="http://www.w3.org/1999/xlink" contentScriptType="application/ecmascript" contentStyleType="text/css" height="445px" preserveAspectRatio="none" style="width:1267px;height:445px;background:#FFFFFF;" version="1.1" viewBox="0 0 1267 445" width="1267px" zoomAndPan="magnify"><defs><filter height="300%" id="f1kumjbeo68or0" width="300%" x="-1" y="-1"><feGaussianBlur result="blurOut" stdDeviation="2.0"/><feColorMatrix in="blurOut" result="blurOut2" type="matrix" values="0 0 0 0 0 0 0 0 0 0 0 0 0 0 0 0 0 0 .4 0"/><feOffset dx="4.0" dy="4.0" in="blurOut2" result="blurOut3"/><feBlend in="SourceGraphic" in2="blurOut3" mode="normal"/></filter></defs><g><!--MD5=[db08477f163a0cdb1bc3f4edab719c25]
cluster md.language.yoficate--><polygon fill="#FFFFFF" filter="url(#f1kumjbeo68or0)" points="16,6,173,6,180,28.4883,1250,28.4883,1250,438,16,438,16,6" style="stroke:#000000;stroke-width:1.5;"/><line style="stroke:#000000;stroke-width:1.5;" x1="16" x2="180" y1="28.4883" y2="28.4883"/><text fill="#000000" font-family="sans-serif" font-size="14" font-weight="bold" lengthAdjust="spacing" textLength="151" x="20" y="21.5352">md.language.yoficate</text><!--MD5=[6ac585a3cbe9798ef0605a58f8fbcea2]
class LoadDictionaryInterface--><rect codeLine="11" fill="#EBEBEB" filter="url(#f1kumjbeo68or0)" height="73.9102" id="LoadDictionaryInterface" style="stroke:#333333;stroke-width:1.5;" width="226" x="764" y="41"/><ellipse cx="805.55" cy="57" fill="#B4A7E5" rx="11" ry="11" style="stroke:#333333;stroke-width:1.0;"/><path d="M801.9777,53.2651 L801.9777,51.1069 L809.3571,51.1069 L809.3571,53.2651 L806.8918,53.2651 L806.8918,61.3418 L809.3571,61.3418 L809.3571,63.5 L801.9777,63.5 L801.9777,61.3418 L804.4431,61.3418 L804.4431,53.2651 Z " fill="#000000"/><text fill="#000000" font-family="sans-serif" font-size="12" font-style="italic" lengthAdjust="spacing" textLength="135" x="825.45" y="61.5352">LoadDictionaryInterface</text><line style="stroke:#333333;stroke-width:1.5;" x1="765" x2="989" y1="73" y2="73"/><line style="stroke:#333333;stroke-width:1.5;" x1="765" x2="989" y1="81" y2="81"/><ellipse cx="775" cy="92" fill="#84BE84" rx="3" ry="3" style="stroke:#038048;stroke-width:1.0;"/><text fill="#000000" font-family="sans-serif" font-size="11" lengthAdjust="spacing" textLength="200" x="784" y="95.6348">load(file_path: str) -&gt; DictionaryType</text><ellipse cx="775" cy="104.9551" fill="#84BE84" rx="3" ry="3" style="stroke:#038048;stroke-width:1.0;"/><text fill="#000000" font-family="sans-serif" font-size="11" lengthAdjust="spacing" textLength="169" x="784" y="108.5898">supports(file_path: str) -&gt; bool</text><!--MD5=[b02a03a393cdd65c6a004a5a9f2bd286]
class DictionaryInterface--><rect codeLine="16" fill="#EBEBEB" filter="url(#f1kumjbeo68or0)" height="73.9102" id="DictionaryInterface" style="stroke:#333333;stroke-width:1.5;" width="230" x="255" y="188"/><ellipse cx="312.25" cy="204" fill="#B4A7E5" rx="11" ry="11" style="stroke:#333333;stroke-width:1.0;"/><path d="M308.6777,200.2651 L308.6777,198.1069 L316.0571,198.1069 L316.0571,200.2651 L313.5918,200.2651 L313.5918,208.3418 L316.0571,208.3418 L316.0571,210.5 L308.6777,210.5 L308.6777,208.3418 L311.1431,208.3418 L311.1431,200.2651 Z " fill="#000000"/><text fill="#000000" font-family="sans-serif" font-size="12" font-style="italic" lengthAdjust="spacing" textLength="107" x="332.75" y="208.5352">DictionaryInterface</text><line style="stroke:#333333;stroke-width:1.5;" x1="256" x2="484" y1="220" y2="220"/><line style="stroke:#333333;stroke-width:1.5;" x1="256" x2="484" y1="228" y2="228"/><ellipse cx="266" cy="239" fill="#84BE84" rx="3" ry="3" style="stroke:#038048;stroke-width:1.0;"/><text fill="#000000" font-family="sans-serif" font-size="11" lengthAdjust="spacing" textLength="204" x="275" y="242.6348">find(word: str) -&gt; typing.Optional[str]</text><ellipse cx="266" cy="251.9551" fill="#84BE84" rx="3" ry="3" style="stroke:#038048;stroke-width:1.0;"/><text fill="#000000" font-family="sans-serif" font-size="11" lengthAdjust="spacing" textLength="120" x="275" y="255.5898">has(word: str) -&gt; bool</text><!--MD5=[bddefb545af93e421fda92bad6f5751e]
class YoficateInterface--><rect codeLine="21" fill="#EBEBEB" filter="url(#f1kumjbeo68or0)" height="73.9102" id="YoficateInterface" style="stroke:#333333;stroke-width:1.5;" width="145" x="53.5" y="41"/><ellipse cx="76.6" cy="57" fill="#B4A7E5" rx="11" ry="11" style="stroke:#333333;stroke-width:1.0;"/><path d="M73.0277,53.2651 L73.0277,51.1069 L80.4071,51.1069 L80.4071,53.2651 L77.9418,53.2651 L77.9418,61.3418 L80.4071,61.3418 L80.4071,63.5 L73.0277,63.5 L73.0277,61.3418 L75.4931,61.3418 L75.4931,53.2651 Z " fill="#000000"/><text fill="#000000" font-family="sans-serif" font-size="12" font-style="italic" lengthAdjust="spacing" textLength="95" x="92.4" y="61.5352">YoficateInterface</text><line style="stroke:#333333;stroke-width:1.5;" x1="54.5" x2="197.5" y1="73" y2="73"/><line style="stroke:#333333;stroke-width:1.5;" x1="54.5" x2="197.5" y1="81" y2="81"/><ellipse cx="64.5" cy="92" fill="#84BE84" rx="3" ry="3" style="stroke:#038048;stroke-width:1.0;"/><text fill="#000000" font-family="sans-serif" font-size="11" lengthAdjust="spacing" textLength="107" x="73.5" y="95.6348">text(text: str) -&gt; str</text><ellipse cx="64.5" cy="104.9551" fill="#84BE84" rx="3" ry="3" style="stroke:#038048;stroke-width:1.0;"/><text fill="#000000" font-family="sans-serif" font-size="11" lengthAdjust="spacing" textLength="119" x="73.5" y="108.5898">word(word: str) -&gt; str</text><!--MD5=[612b00441539636c05752a86f0b62153]
class BytesStreamLoadDictionary--><rect codeLine="26" fill="#EBEBEB" filter="url(#f1kumjbeo68or0)" height="60.9551" id="BytesStreamLoadDictionary" style="stroke:#333333;stroke-width:1.5;" width="414" x="670" y="348"/><ellipse cx="795.25" cy="364" fill="#ADD1B2" rx="11" ry="11" style="stroke:#333333;stroke-width:1.0;"/><path d="M797.7231,370.1431 Q797.1421,370.4419 796.5029,370.5913 Q795.8638,370.7407 795.1582,370.7407 Q792.6514,370.7407 791.3315,369.0889 Q790.0117,367.437 790.0117,364.3159 Q790.0117,361.1865 791.3315,359.5347 Q792.6514,357.8828 795.1582,357.8828 Q795.8638,357.8828 796.5112,358.0322 Q797.1587,358.1816 797.7231,358.4805 L797.7231,361.2031 Q797.0923,360.6221 796.4988,360.3523 Q795.9053,360.0825 795.2744,360.0825 Q793.9297,360.0825 793.2449,361.1492 Q792.5601,362.2158 792.5601,364.3159 Q792.5601,366.4077 793.2449,367.4744 Q793.9297,368.541 795.2744,368.541 Q795.9053,368.541 796.4988,368.2712 Q797.0923,368.0015 797.7231,367.4204 Z " fill="#000000"/><text fill="#000000" font-family="sans-serif" font-size="12" lengthAdjust="spacing" textLength="155" x="815.75" y="368.5352">BytesStreamLoadDictionary</text><line style="stroke:#333333;stroke-width:1.5;" x1="671" x2="1083" y1="380" y2="380"/><line style="stroke:#333333;stroke-width:1.5;" x1="671" x2="1083" y1="388" y2="388"/><ellipse cx="681" cy="399" fill="#84BE84" rx="3" ry="3" style="stroke:#038048;stroke-width:1.0;"/><text fill="#000000" font-family="sans-serif" font-size="11" lengthAdjust="spacing" textLength="388" x="690" y="402.6348">load(stream: typing.IO[bytes], encoding: str = 'utf-8') -&gt; DictionaryType</text><!--MD5=[e27343d42e39b4caf501dfa6c91bfa56]
class TextFileLoadDictionary--><rect codeLine="30" fill="#EBEBEB" filter="url(#f1kumjbeo68or0)" height="86.8652" id="TextFileLoadDictionary" style="stroke:#333333;stroke-width:1.5;" width="339" x="520.5" y="181.5"/><ellipse cx="620.75" cy="197.5" fill="#ADD1B2" rx="11" ry="11" style="stroke:#333333;stroke-width:1.0;"/><path d="M623.2231,203.6431 Q622.6421,203.9419 622.0029,204.0913 Q621.3638,204.2407 620.6582,204.2407 Q618.1514,204.2407 616.8315,202.5889 Q615.5117,200.937 615.5117,197.8159 Q615.5117,194.6865 616.8315,193.0347 Q618.1514,191.3828 620.6582,191.3828 Q621.3638,191.3828 622.0112,191.5322 Q622.6587,191.6816 623.2231,191.9805 L623.2231,194.7031 Q622.5923,194.1221 621.9988,193.8523 Q621.4053,193.5825 620.7744,193.5825 Q619.4297,193.5825 618.7449,194.6492 Q618.0601,195.7158 618.0601,197.8159 Q618.0601,199.9077 618.7449,200.9744 Q619.4297,202.041 620.7744,202.041 Q621.4053,202.041 621.9988,201.7712 Q622.5923,201.5015 623.2231,200.9204 Z " fill="#000000"/><text fill="#000000" font-family="sans-serif" font-size="12" lengthAdjust="spacing" textLength="130" x="641.25" y="202.0352">TextFileLoadDictionary</text><line style="stroke:#333333;stroke-width:1.5;" x1="521.5" x2="858.5" y1="213.5" y2="213.5"/><rect fill="none" height="6" style="stroke:#C82930;stroke-width:1.0;" width="6" x="528.5" y="221.5"/><text fill="#000000" font-family="sans-serif" font-size="11" lengthAdjust="spacing" textLength="313" x="540.5" y="228.1348">bytes_stream_load_dictionary: BytesStreamLoadDictionary</text><line style="stroke:#333333;stroke-width:1.5;" x1="521.5" x2="858.5" y1="234.4551" y2="234.4551"/><ellipse cx="531.5" cy="245.4551" fill="#84BE84" rx="3" ry="3" style="stroke:#038048;stroke-width:1.0;"/><text fill="#000000" font-family="sans-serif" font-size="11" lengthAdjust="spacing" textLength="200" x="540.5" y="249.0898">load(file_path: str) -&gt; DictionaryType</text><ellipse cx="531.5" cy="258.4102" fill="#84BE84" rx="3" ry="3" style="stroke:#038048;stroke-width:1.0;"/><text fill="#000000" font-family="sans-serif" font-size="11" lengthAdjust="spacing" textLength="169" x="540.5" y="262.0449">supports(file_path: str) -&gt; bool</text><!--MD5=[7e01662f40c86202b6eb20b6c71fb96b]
class Bz2TextFileLoadDictionary--><rect codeLine="36" fill="#EBEBEB" filter="url(#f1kumjbeo68or0)" height="86.8652" id="Bz2TextFileLoadDictionary" style="stroke:#333333;stroke-width:1.5;" width="339" x="894.5" y="181.5"/><ellipse cx="983.75" cy="197.5" fill="#ADD1B2" rx="11" ry="11" style="stroke:#333333;stroke-width:1.0;"/><path d="M986.2231,203.6431 Q985.6421,203.9419 985.0029,204.0913 Q984.3638,204.2407 983.6582,204.2407 Q981.1514,204.2407 979.8315,202.5889 Q978.5117,200.937 978.5117,197.8159 Q978.5117,194.6865 979.8315,193.0347 Q981.1514,191.3828 983.6582,191.3828 Q984.3638,191.3828 985.0112,191.5322 Q985.6587,191.6816 986.2231,191.9805 L986.2231,194.7031 Q985.5923,194.1221 984.9988,193.8523 Q984.4053,193.5825 983.7744,193.5825 Q982.4297,193.5825 981.7449,194.6492 Q981.0601,195.7158 981.0601,197.8159 Q981.0601,199.9077 981.7449,200.9744 Q982.4297,202.041 983.7744,202.041 Q984.4053,202.041 984.9988,201.7712 Q985.5923,201.5015 986.2231,200.9204 Z " fill="#000000"/><text fill="#000000" font-family="sans-serif" font-size="12" lengthAdjust="spacing" textLength="152" x="1004.25" y="202.0352">Bz2TextFileLoadDictionary</text><line style="stroke:#333333;stroke-width:1.5;" x1="895.5" x2="1232.5" y1="213.5" y2="213.5"/><rect fill="none" height="6" style="stroke:#C82930;stroke-width:1.0;" width="6" x="902.5" y="221.5"/><text fill="#000000" font-family="sans-serif" font-size="11" lengthAdjust="spacing" textLength="313" x="914.5" y="228.1348">bytes_stream_load_dictionary: BytesStreamLoadDictionary</text><line style="stroke:#333333;stroke-width:1.5;" x1="895.5" x2="1232.5" y1="234.4551" y2="234.4551"/><ellipse cx="905.5" cy="245.4551" fill="#84BE84" rx="3" ry="3" style="stroke:#038048;stroke-width:1.0;"/><text fill="#000000" font-family="sans-serif" font-size="11" lengthAdjust="spacing" textLength="200" x="914.5" y="249.0898">load(file_path: str) -&gt; DictionaryType</text><ellipse cx="905.5" cy="258.4102" fill="#84BE84" rx="3" ry="3" style="stroke:#038048;stroke-width:1.0;"/><text fill="#000000" font-family="sans-serif" font-size="11" lengthAdjust="spacing" textLength="169" x="914.5" y="262.0449">supports(file_path: str) -&gt; bool</text><!--MD5=[c9466ee11f6c7c9001dcf3998faa53a9]
class MappingDictionary--><rect codeLine="42" fill="#EBEBEB" filter="url(#f1kumjbeo68or0)" height="86.8652" id="MappingDictionary" style="stroke:#333333;stroke-width:1.5;" width="230" x="255" y="335"/><ellipse cx="312.25" cy="351" fill="#ADD1B2" rx="11" ry="11" style="stroke:#333333;stroke-width:1.0;"/><path d="M314.7231,357.1431 Q314.1421,357.4419 313.5029,357.5913 Q312.8638,357.7407 312.1582,357.7407 Q309.6514,357.7407 308.3315,356.0889 Q307.0117,354.437 307.0117,351.3159 Q307.0117,348.1865 308.3315,346.5347 Q309.6514,344.8828 312.1582,344.8828 Q312.8638,344.8828 313.5112,345.0322 Q314.1587,345.1816 314.7231,345.4805 L314.7231,348.2031 Q314.0923,347.6221 313.4988,347.3523 Q312.9053,347.0825 312.2744,347.0825 Q310.9297,347.0825 310.2449,348.1492 Q309.5601,349.2158 309.5601,351.3159 Q309.5601,353.4077 310.2449,354.4744 Q310.9297,355.541 312.2744,355.541 Q312.9053,355.541 313.4988,355.2712 Q314.0923,355.0015 314.7231,354.4204 Z " fill="#000000"/><text fill="#000000" font-family="sans-serif" font-size="12" lengthAdjust="spacing" textLength="107" x="332.75" y="355.5352">MappingDictionary</text><line style="stroke:#333333;stroke-width:1.5;" x1="256" x2="484" y1="367" y2="367"/><rect fill="none" height="6" style="stroke:#C82930;stroke-width:1.0;" width="6" x="263" y="375"/><text fill="#000000" font-family="sans-serif" font-size="11" lengthAdjust="spacing" textLength="141" x="275" y="381.6348">dictionary: DictionaryType</text><line style="stroke:#333333;stroke-width:1.5;" x1="256" x2="484" y1="387.9551" y2="387.9551"/><ellipse cx="266" cy="398.9551" fill="#84BE84" rx="3" ry="3" style="stroke:#038048;stroke-width:1.0;"/><text fill="#000000" font-family="sans-serif" font-size="11" lengthAdjust="spacing" textLength="204" x="275" y="402.5898">find(word: str) -&gt; typing.Optional[str]</text><ellipse cx="266" cy="411.9102" fill="#84BE84" rx="3" ry="3" style="stroke:#038048;stroke-width:1.0;"/><text fill="#000000" font-family="sans-serif" font-size="11" lengthAdjust="spacing" textLength="120" x="275" y="415.5449">has(word: str) -&gt; bool</text><!--MD5=[90274cf793193b0a0bb0768dfabfd4be]
class RegularExpressionYoficate--><rect codeLine="48" fill="#EBEBEB" filter="url(#f1kumjbeo68or0)" height="99.8203" id="RegularExpressionYoficate" style="stroke:#333333;stroke-width:1.5;" width="188" x="32" y="175"/><ellipse cx="48.8" cy="191" fill="#ADD1B2" rx="11" ry="11" style="stroke:#333333;stroke-width:1.0;"/><path d="M51.2731,197.1431 Q50.6921,197.4419 50.0529,197.5913 Q49.4138,197.7407 48.7082,197.7407 Q46.2014,197.7407 44.8815,196.0889 Q43.5617,194.437 43.5617,191.3159 Q43.5617,188.1865 44.8815,186.5347 Q46.2014,184.8828 48.7082,184.8828 Q49.4138,184.8828 50.0612,185.0322 Q50.7087,185.1816 51.2731,185.4805 L51.2731,188.2031 Q50.6423,187.6221 50.0488,187.3523 Q49.4553,187.0825 48.8244,187.0825 Q47.4797,187.0825 46.7949,188.1492 Q46.1101,189.2158 46.1101,191.3159 Q46.1101,193.4077 46.7949,194.4744 Q47.4797,195.541 48.8244,195.541 Q49.4553,195.541 50.0488,195.2712 Q50.6423,195.0015 51.2731,194.4204 Z " fill="#000000"/><text fill="#000000" font-family="sans-serif" font-size="12" lengthAdjust="spacing" textLength="152" x="63.2" y="195.5352">RegularExpressionYoficate</text><line style="stroke:#333333;stroke-width:1.5;" x1="33" x2="219" y1="207" y2="207"/><rect fill="none" height="6" style="stroke:#C82930;stroke-width:1.0;" width="6" x="40" y="215"/><text fill="#000000" font-family="sans-serif" font-size="11" lengthAdjust="spacing" textLength="162" x="52" y="221.6348">dictionary: DictionaryInterface</text><rect fill="none" height="6" style="stroke:#C82930;stroke-width:1.0;" width="6" x="40" y="227.9551"/><text fill="#000000" font-family="sans-serif" font-size="11" lengthAdjust="spacing" textLength="141" x="52" y="234.5898">e_word_regexp: re.Pattern</text><line style="stroke:#333333;stroke-width:1.5;" x1="33" x2="219" y1="240.9102" y2="240.9102"/><ellipse cx="43" cy="251.9102" fill="#84BE84" rx="3" ry="3" style="stroke:#038048;stroke-width:1.0;"/><text fill="#000000" font-family="sans-serif" font-size="11" lengthAdjust="spacing" textLength="107" x="52" y="255.5449">text(text: str) -&gt; str</text><ellipse cx="43" cy="264.8652" fill="#84BE84" rx="3" ry="3" style="stroke:#038048;stroke-width:1.0;"/><text fill="#000000" font-family="sans-serif" font-size="11" lengthAdjust="spacing" textLength="119" x="52" y="268.5">word(word: str) -&gt; str</text><!--MD5=[55ea035ab0da592e53eb74bd8c3f9789]
reverse link LoadDictionaryInterface to TextFileLoadDictionary--><path d="M811.75,135.09 C811.75,135.09 811.75,181.39 811.75,181.39 " fill="none" id="LoadDictionaryInterface-backto-TextFileLoadDictionary" style="stroke:#333333;stroke-width:1.0;stroke-dasharray:7.0,7.0;"/><polygon fill="none" points="804.75,135.09,811.75,115.09,818.75,135.09,804.75,135.09" style="stroke:#333333;stroke-width:1.0;"/><!--MD5=[8dbf80be93e8d91b54efe1c3b78cddd6]
reverse link LoadDictionaryInterface to Bz2TextFileLoadDictionary--><path d="M942.25,135.09 C942.25,135.09 942.25,181.39 942.25,181.39 " fill="none" id="LoadDictionaryInterface-backto-Bz2TextFileLoadDictionary" style="stroke:#333333;stroke-width:1.0;stroke-dasharray:7.0,7.0;"/><polygon fill="none" points="935.25,135.09,942.25,115.09,949.25,135.09,935.25,135.09" style="stroke:#333333;stroke-width:1.0;"/><!--MD5=[a66e9a969e0ba1d65b9392e020ad0d55]
reverse link DictionaryInterface to MappingDictionary--><path d="M370,282.16 C370,282.16 370,334.88 370,334.88 " fill="none" id="DictionaryInterface-backto-MappingDictionary" style="stroke:#333333;stroke-width:1.0;stroke-dasharray:7.0,7.0;"/><polygon fill="none" points="363,282.16,370,262.16,377,282.16,363,282.16" style="stroke:#333333;stroke-width:1.0;"/><!--MD5=[b69952a718fb9077a549626560dfd197]
reverse link YoficateInterface to RegularExpressionYoficate--><path d="M126,135.09 C126,135.09 126,174.87 126,174.87 " fill="none" id="YoficateInterface-backto-RegularExpressionYoficate" style="stroke:#333333;stroke-width:1.0;stroke-dasharray:7.0,7.0;"/><polygon fill="none" points="119,135.09,126,115.09,133,135.09,119,135.09" style="stroke:#333333;stroke-width:1.0;"/><!--MD5=[7c4aad50db9bc30cd2e996ccb9904f98]
link TextFileLoadDictionary to BytesStreamLoadDictionary--><path codeLine="55" d="M764.75,280.58 C764.75,280.58 764.75,334.97 764.75,334.97 " fill="none" id="TextFileLoadDictionary-BytesStreamLoadDictionary" style="stroke:#333333;stroke-width:1.0;"/><polygon fill="#333333" points="764.75,347.97,768.75,338.97,764.75,342.97,760.75,338.97,764.75,347.97" style="stroke:#333333;stroke-width:1.0;"/><line style="stroke:#333333;stroke-width:1.0;" x1="764.75" x2="764.75" y1="342.97" y2="334.97"/><polygon fill="#333333" points="764.75,268.58,760.75,274.58,764.75,280.58,768.75,274.58,764.75,268.58" style="stroke:#333333;stroke-width:1.0;"/><!--MD5=[77dddb6ef17f4e540f0e18e5c8625566]
link Bz2TextFileLoadDictionary to BytesStreamLoadDictionary--><path codeLine="56" d="M989.25,280.58 C989.25,280.58 989.25,334.97 989.25,334.97 " fill="none" id="Bz2TextFileLoadDictionary-BytesStreamLoadDictionary" style="stroke:#333333;stroke-width:1.0;"/><polygon fill="#333333" points="989.25,347.97,993.25,338.97,989.25,342.97,985.25,338.97,989.25,347.97" style="stroke:#333333;stroke-width:1.0;"/><line style="stroke:#333333;stroke-width:1.0;" x1="989.25" x2="989.25" y1="342.97" y2="334.97"/><polygon fill="#333333" points="989.25,268.58,985.25,274.58,989.25,280.58,993.25,274.58,989.25,268.58" style="stroke:#333333;stroke-width:1.0;"/><!--MD5=[1e397bdadeb6f2bebde5f90235a31d78]
link RegularExpressionYoficate to DictionaryInterface--><path codeLine="57" d="M232.34,225 C232.34,225 241.72,225 241.72,225 " fill="none" id="RegularExpressionYoficate-DictionaryInterface" style="stroke:#333333;stroke-width:1.0;"/><polygon fill="#333333" points="254.72,225,245.72,221,249.72,225,245.72,229,254.72,225" style="stroke:#333333;stroke-width:1.0;"/><line style="stroke:#333333;stroke-width:1.0;" x1="249.72" x2="241.72" y1="225" y2="225"/><polygon fill="#333333" points="220.34,225,226.34,229,232.34,225,226.34,221,220.34,225" style="stroke:#333333;stroke-width:1.0;"/><!--MD5=[8a40d8cfd8164070fe1301be3d58ea4d]
@startuml

skinparam class {
  BackgroundColor #ebebeb
  ArrowColor      #333
  BorderColor     #333
}

skinparam lineType ortho

package md.language.yoficate {
  interface LoadDictionaryInterface {
    + load(file_path: str) -> DictionaryType
    + supports(file_path: str) -> bool
  }

  interface DictionaryInterface {
    + find(word: str) -> typing.Optional[str]
    + has(word: str) -> bool
  }

  interface YoficateInterface {
    + text(text: str) -> str
    + word(word: str) -> str
  }

  class BytesStreamLoadDictionary {
    + load(stream: typing.IO[bytes], encoding: str = 'utf-8') -> DictionaryType
  }

  class TextFileLoadDictionary implements LoadDictionaryInterface {
    - bytes_stream_load_dictionary: BytesStreamLoadDictionary
    + load(file_path: str) -> DictionaryType
    + supports(file_path: str) -> bool
  }

  class Bz2TextFileLoadDictionary implements LoadDictionaryInterface {
    - bytes_stream_load_dictionary: BytesStreamLoadDictionary
    + load(file_path: str) -> DictionaryType
    + supports(file_path: str) -> bool
  }

  class MappingDictionary implements DictionaryInterface {
    - dictionary: DictionaryType
    + find(word: str) -> typing.Optional[str]
    + has(word: str) -> bool
  }

  class RegularExpressionYoficate implements YoficateInterface {
    - dictionary: DictionaryInterface
    - e_word_regexp: re.Pattern
    + text(text: str) -> str
    + word(word: str) -> str
  }

  TextFileLoadDictionary *-down-> BytesStreamLoadDictionary
  Bz2TextFileLoadDictionary *-down-> BytesStreamLoadDictionary
  RegularExpressionYoficate *-> DictionaryInterface
}

@enduml

PlantUML version 1.2022.0(Tue Jan 11 19:16:42 MSK 2022)
(GPL source distribution)
Java Runtime: Java(TM) SE Runtime Environment
JVM: Java HotSpot(TM) 64-Bit Server VM
Default Encoding: UTF-8
Language: ru
Country: RU
--></g></svg>